<?xml version="1.0" encoding="utf-8"?>
<!-- Generator: Adobe Illustrator 18.1.1, SVG Export Plug-In . SVG Version: 6.00 Build 0)  -->
<svg version="1.1" id="Layer_1" xmlns="http://www.w3.org/2000/svg" xmlns:xlink="http://www.w3.org/1999/xlink" x="0px" y="0px"
	 viewBox="0 0 46.5 49.2" enable-background="new 0 0 46.5 49.2" xml:space="preserve">
<g id="Mpk9YG_1_">
	<g>
		<path d="M22.2,17.1c3.3,0,6.7,0,10,0c0.8,0,1.6,0.3,2.2,0.8c2.8,2.2,4,5.1,3.3,8.6c-1.5,7.3-5.1,13.7-10.5,18.9
			c-3.5,3.4-6.5,3.4-10.1,0c-5.4-5.2-8.9-11.6-10.5-18.9c-0.5-2.3,0.1-4.6,1.4-6.6C9.4,18,11,16.8,13.5,17
			C16.4,17.2,19.3,17.1,22.2,17.1z M31.3,34.8c0.5-1.1,1.1-2,1.2-3c0.1-0.6-0.3-1.4-0.7-2c-0.1-0.2-1.1-0.2-1.2,0
			c-0.3,0.6-0.7,1.4-0.6,2C30.3,32.9,30.9,33.7,31.3,34.8z M13.2,34.8c0.5-1.1,1.1-2,1.2-2.9c0.1-0.6-0.3-1.4-0.6-2
			c-0.1-0.2-1.1-0.2-1.2,0c-0.4,0.6-0.8,1.4-0.7,2C12.1,32.8,12.7,33.7,13.2,34.8z M22,25.5c0.5-1.3,1.1-2.3,1.2-3.2
			c0.1-0.6-0.3-1.3-0.7-1.8c-0.1-0.2-1.1-0.2-1.2,0c-0.3,0.5-0.7,1.3-0.6,1.9C20.9,23.3,21.4,24.2,22,25.5z M17.5,30.1
			c0.5-1.1,1-2,1.2-2.9c0.1-0.6-0.2-1.4-0.5-2c-0.1-0.2-1.2-0.2-1.3,0c-0.3,0.6-0.7,1.4-0.5,2C16.4,28.2,17,29,17.5,30.1z
			 M27.1,30.1c0.5-1.1,1-2,1.2-3c0.1-0.6-0.3-1.4-0.6-2c-0.1-0.2-1.1-0.2-1.2,0c-0.3,0.6-0.7,1.4-0.6,2C26,28.1,26.6,29,27.1,30.1z
			 M22.2,34.9c0.5-1.2,1.1-2.1,1.2-3c0.1-0.6-0.3-1.4-0.7-2c-0.1-0.2-1.1-0.2-1.2,0c-0.3,0.6-0.7,1.4-0.6,2
			C21.1,32.9,21.7,33.7,22.2,34.9z M11.6,25.4c0.5-1.2,1-2.1,1.2-3c0.1-0.6-0.2-1.4-0.5-1.9c-0.1-0.2-1.2-0.3-1.3,0
			c-0.4,0.5-0.7,1.3-0.6,1.9C10.5,23.3,11,24.2,11.6,25.4z M22.3,44.3c0.4-1,1-1.7,1-2.5c0.1-0.8-0.2-1.7-0.4-2.5
			c0-0.1-1.2-0.1-1.3,0c-0.3,0.8-0.5,1.6-0.4,2.4C21.3,42.6,21.8,43.3,22.3,44.3z M33,25.4c0.5-1.2,1.1-2.1,1.2-3.2
			c0.1-0.6-0.3-1.3-0.7-1.8c-0.1-0.2-1.1-0.2-1.2,0c-0.3,0.5-0.7,1.3-0.6,1.9C31.9,23.3,32.4,24.2,33,25.4z M17,39.6
			c0.5-1.1,1-1.9,1.1-2.7c0.1-0.7-0.2-1.5-0.5-2.2c-0.1-0.2-1.2-0.2-1.3,0c-0.3,0.7-0.6,1.5-0.5,2.2C16,37.7,16.6,38.5,17,39.6z
			 M27.5,39.6c0.5-1,1-1.7,1.1-2.5c0.1-0.8-0.1-1.6-0.4-2.3c-0.1-0.2-1.3-0.1-1.4,0c-0.3,0.7-0.5,1.6-0.4,2.4
			C26.5,37.9,27,38.6,27.5,39.6z"/>
		<path d="M22.4,1.4c0.9,2.6,1.7,5.2,2.6,8c3.1-1,6.1-2,9.5-3.2c-1.7,2.4-3.1,4.5-4.6,6.6c2.2,0.7,4.2,1.4,6.3,2.1
			c-2.6,1.4-24.7,1.5-28.1,0c2.2-0.7,4.2-1.4,6.4-2.1c-1.5-2.1-2.9-4.2-4.7-6.6c3.4,1.1,6.4,2.2,9.6,3.2c0.9-2.8,1.8-5.4,2.6-8.1
			C22.2,1.3,22.3,1.3,22.4,1.4z"/>
		<path fill="#FFFFFF" d="M31.3,34.8c-0.5-1.1-1.1-2-1.2-2.9c-0.1-0.6,0.3-1.4,0.6-2c0.1-0.2,1.1-0.2,1.2,0c0.4,0.6,0.8,1.4,0.7,2
			C32.4,32.8,31.8,33.7,31.3,34.8z"/>
		<path fill="#FFFFFF" d="M13.2,34.8c-0.5-1.1-1-2-1.2-3c-0.1-0.6,0.3-1.4,0.7-2c0.1-0.2,1.1-0.2,1.2,0c0.3,0.6,0.7,1.4,0.6,2
			C14.2,32.9,13.7,33.7,13.2,34.8z"/>
		<path fill="#FFFFFF" d="M22,25.5c-0.5-1.3-1.1-2.2-1.2-3.1c-0.1-0.6,0.2-1.3,0.6-1.9c0.1-0.2,1.1-0.2,1.2,0
			c0.4,0.5,0.8,1.3,0.7,1.8C23,23.2,22.5,24.1,22,25.5z"/>
		<path fill="#FFFFFF" d="M17.5,30.1c-0.5-1.1-1-2-1.2-2.9c-0.1-0.6,0.2-1.4,0.5-2c0.1-0.2,1.2-0.2,1.3,0c0.3,0.6,0.6,1.4,0.5,2
			C18.5,28.2,17.9,29,17.5,30.1z"/>
		<path fill="#FFFFFF" d="M27.1,30.1c-0.5-1.1-1-2-1.2-3c-0.1-0.6,0.3-1.4,0.6-2c0.1-0.2,1.1-0.2,1.2,0c0.3,0.6,0.7,1.4,0.6,2
			C28.1,28.1,27.5,29,27.1,30.1z"/>
		<path fill="#FFFFFF" d="M22.2,34.9c-0.5-1.2-1-2.1-1.2-3c-0.1-0.6,0.2-1.4,0.6-2c0.1-0.2,1.1-0.2,1.2,0c0.4,0.6,0.8,1.4,0.7,2
			C23.2,32.8,22.7,33.7,22.2,34.9z"/>
		<path fill="#FFFFFF" d="M11.6,25.4c-0.5-1.2-1.1-2.1-1.2-3.1c-0.1-0.6,0.2-1.4,0.6-1.9c0.1-0.2,1.2-0.2,1.3,0
			c0.3,0.5,0.6,1.3,0.5,1.9C12.6,23.3,12.1,24.2,11.6,25.4z"/>
		<path fill="#FFFFFF" d="M22.3,44.3c-0.5-1-1-1.8-1.1-2.5c-0.1-0.8,0.1-1.6,0.4-2.4c0.1-0.2,1.2-0.2,1.3,0c0.3,0.8,0.5,1.7,0.4,2.5
			C23.2,42.6,22.7,43.3,22.3,44.3z"/>
		<path fill="#FFFFFF" d="M33,25.4c-0.5-1.2-1.1-2.1-1.2-3.1c-0.1-0.6,0.2-1.3,0.6-1.9c0.1-0.2,1.1-0.2,1.2,0
			c0.4,0.5,0.8,1.3,0.7,1.8C34,23.2,33.5,24.2,33,25.4z"/>
		<path fill="#FFFFFF" d="M17,39.6c-0.5-1.1-1-1.9-1.2-2.7c-0.1-0.7,0.2-1.5,0.5-2.2c0.1-0.2,1.2-0.2,1.3,0c0.3,0.7,0.6,1.5,0.5,2.2
			C18.1,37.7,17.5,38.5,17,39.6z"/>
		<path fill="#FFFFFF" d="M27.5,39.6c-0.5-1-1-1.7-1.1-2.4c-0.1-0.8,0.1-1.6,0.4-2.4c0.1-0.2,1.3-0.2,1.4,0c0.3,0.7,0.5,1.6,0.4,2.3
			C28.5,37.8,27.9,38.5,27.5,39.6z"/>
	</g>
</g>
</svg>
