<?xml version="1.0" encoding="utf-8"?>
<!-- Generator: Adobe Illustrator 18.1.1, SVG Export Plug-In . SVG Version: 6.00 Build 0)  -->
<svg version="1.1" id="Layer_1" xmlns="http://www.w3.org/2000/svg" xmlns:xlink="http://www.w3.org/1999/xlink" x="0px" y="0px"
	 viewBox="315 37.3 340.6 353.7" enable-background="new 315 37.3 340.6 353.7" xml:space="preserve">
<g>
	<g>
		<path fill="#FFFFFF" d="M654.8,111.7c0,0-25.2-2.5-29.8-4.8c-3.1-1.5-7.6-6.1-8.1-9.4c-0.6-3.9-1.3-18-2.5-21.6
			c-0.5-1.4-1.6-16.4-7.4-22.7c-8.9-9.5-13-4.4-21-8.9c-6.6-3.7-10.8-7.1-21-6.4c-34.3,2.6-40.6,29.9-49.5,42.6
			c-4.8,6.9-11.4,18.9-12.7,24.1c-3.8,15.9,9.5,25.4,9.5,25.4c-1.8,0.5-7.4,6.3-16.5,16.5c-14.4,16.2-18.6,42.9-18.6,42.9
			s-25.7-1.3-38.9,0.1c-13.2,1.4-22.6,2.2-22.6,2.2l-4.5-7.3c8.9-7.6,14.6-18.8,14.6-31.5c0-22.8-18.2-41.3-40.6-41.3
			c-22.4,0-40.6,18.5-40.6,41.3s18.2,41.3,40.6,41.3c3.4,0,6.6-0.5,9.7-1.3c2,4,4.9,9.8,4,10c-1.3,0.3-8.1,8.4-9.4,17
			c-1.3,8.6-0.3,29.5-1.3,40.6c-1,11.2-4.1,23.1-4.1,23.1l-22,25c-4.5-2.8-9.6-4.5-15.1-4.5c-17.4,0-31.6,15.8-31.6,35.4
			c0,13.6,7,25.3,17.1,31.1v8.6c0,0,0,0,0,0v11.1h38.3c0-8-4.6-14.9-11.3-18.4c11.2-5.4,19.1-17.9,19.1-32.4c0-6.2-1.6-12-4.1-17
			c6.1-3.7,23.4-14.6,29.9-19.6c7.6-5.8,18.5-23.6,24.9-33c6.4-9.4,13-19.2,13-19.2h37.5c0,0,4.6,15.2,31.6,20.5
			c26.9,5.3,54.8,6.2,54.8,6.2l2.6,26.3c-10.2,6.2-17.2,18.8-17.2,33.6c0,14.3,6.7,26.5,16.3,32.9l0,0.2h0.2v20.1h39.8
			c0-8.5-5.1-15.7-12.3-19c10.7-5.9,18.2-19,18.2-34.2c0-17.1-9.5-31.4-22.4-36l2.9-29c0,0,18.5-5.6,25.9-19.6
			c7.4-14,12.1-29.3,12.1-45.8c0-16.5-0.7-20-5.3-32.2c-4.6-12.2-9.6-21.3-13.7-27.4c-4.1-6.1-3.4-12.7-3.4-12.7l30.9-0.5
			c0,0,13.2-6.6,14.1-16.7C655.3,112.3,654.8,111.7,654.8,111.7"/>
	</g>
	<g>
		<path d="M608.5,391h-40.9v-20.1h-0.2l0-0.5c-10.1-6.8-16.3-19.4-16.3-33.2c0-14.3,6.6-27.2,17.2-33.9l-2.5-25.5
			c-3.9-0.1-29.7-1.3-54.4-6.2c-24.8-4.9-30.9-18-31.8-20.5h-36.8l-12.9,19c-1.1,1.6-2.3,3.5-3.6,5.5c-6.3,9.6-15,22.8-21.4,27.7
			c-6.5,5-23.5,15.7-29.5,19.3c2.6,5.4,3.9,11,3.9,16.8c0,13.9-7.2,26.5-18.4,32.5c6.6,3.8,10.6,10.8,10.6,18.4v0.6H332V371
			c-10.5-6.3-17.1-18.3-17.1-31.5c0-19.8,14.4-35.9,32.2-35.9c5.1,0,10.2,1.4,15,4.3l21.6-24.6c0.3-1.3,3.1-12.5,4-22.9
			c0.5-5.2,0.5-12.7,0.5-19.8c0-8.3,0.1-16.2,0.7-20.8c1.2-8.2,7.4-16.3,9.5-17.4c-0.1-0.5-0.6-2.4-3.9-8.9
			c-3.4,0.8-6.4,1.2-9.4,1.2c-22.7,0-41.2-18.8-41.2-41.8s18.5-41.8,41.2-41.8s41.2,18.8,41.2,41.8c0,12.1-5.3,23.6-14.5,31.6
			l4.1,6.6c1.8-0.2,10.6-0.9,22.3-2.1c4.1-0.4,9.9-0.7,17.1-0.7c9.7,0,19.1,0.4,21.4,0.5c0.7-3.7,5.4-27.7,18.6-42.6
			c10.3-11.6,14.1-15.1,15.9-16.2c-2.8-2.3-12.4-11.5-9-25.4c1.3-5.3,7.8-17.2,12.8-24.3c1.8-2.5,3.5-5.7,5.3-9
			c7.2-13.4,17-31.7,44.7-33.8c1-0.1,1.9-0.1,2.8-0.1c7.3,0,11.4,2.4,16.2,5.2c0.7,0.4,1.5,0.9,2.3,1.3c3.1,1.7,5.6,2,8,2.3
			c3.9,0.4,7.6,0.8,13.1,6.7c4.8,5.2,6.5,16.1,7.2,20.8c0.2,1,0.3,1.9,0.4,2.1c0.9,2.4,1.4,9.3,1.9,14.9c0.3,3,0.5,5.5,0.7,6.8
			c0.5,3.2,5,7.6,7.8,9c4.5,2.2,29.4,4.7,29.7,4.8l0.2,0l0.1,0.2c0.5,0.6,0.3,3.6,0.1,6c-0.9,10.3-13.9,16.9-14.4,17.2l-0.2,0.1
			l-30.3,0.5c0,1.6,0.1,6.9,3.4,11.8c3.6,5.4,8.9,14.6,13.8,27.5c4.5,12,5.3,15.5,5.3,32.4c0,15.2-4.1,30.7-12.2,46
			c-6.8,12.9-23.2,18.8-25.9,19.7l-2.8,28.2c13.4,5,22.4,19.5,22.4,36.4c0,14.4-6.8,27.7-17.5,34.1c7.1,3.6,11.7,11,11.7,19
			L608.5,391L608.5,391z M568.7,389.9h38.6c-0.2-7.7-4.9-14.7-12-17.9l-1-0.5l1-0.5c10.9-6,17.9-19.3,17.9-33.7
			c0-16.3-9.1-30.9-22.1-35.5l-0.4-0.1l3-29.8l0.4-0.1c0.2-0.1,18.4-5.7,25.6-19.3c8-15.2,12.1-30.5,12.1-45.5
			c0-16.7-0.8-20.2-5.2-32c-4.8-12.9-10.1-22-13.7-27.3c-4.1-6.2-3.5-12.8-3.5-13.1l0-0.5l31.2-0.5c1.3-0.7,12.9-7,13.7-16.2
			c0.3-3.3,0.2-4.6,0.1-5.1c-3.3-0.3-25.2-2.6-29.7-4.8c-3-1.5-7.9-6.2-8.4-9.8c-0.2-1.4-0.4-3.9-0.7-6.9c-0.5-5.5-1-12.3-1.8-14.6
			c-0.1-0.3-0.2-1-0.4-2.3c-0.7-4.6-2.3-15.3-6.9-20.2c-5.2-5.6-8.7-6-12.4-6.4c-2.5-0.3-5.1-0.6-8.4-2.4c-0.8-0.5-1.6-0.9-2.3-1.3
			c-4.8-2.8-8.6-5.1-15.6-5.1c-0.9,0-1.8,0-2.7,0.1c-27.1,2-36.3,19.3-43.8,33.2c-1.8,3.4-3.5,6.6-5.3,9.2
			c-4.8,6.9-11.4,18.9-12.6,23.9c-3.7,15.3,9.2,24.7,9.3,24.8l0.9,0.7l-1.1,0.3c-2.3,0.7-12.8,12.5-16.2,16.3
			c-14.1,15.9-18.4,42.3-18.5,42.6l-0.1,0.5l-0.5,0c-0.1,0-10.8-0.5-21.8-0.5c-7.2,0-12.9,0.2-17,0.7c-13.1,1.4-22.5,2.2-22.6,2.2
			l-0.3,0l-4.9-8l0.4-0.3c9.2-7.8,14.4-19.1,14.4-31c0-22.4-18-40.7-40-40.7c-22.1,0-40,18.3-40,40.7s18,40.7,40,40.7
			c3,0,6-0.4,9.6-1.3l0.4-0.1l0.2,0.4c4.7,9.2,4.3,10,4.1,10.4c-0.1,0.2-0.3,0.4-0.5,0.4c-1.1,0.4-7.7,8.1-9,16.5
			c-0.7,4.5-0.7,12.4-0.7,20.7c0,7.2-0.1,14.7-0.5,19.9c-1,11.1-4,23.1-4.1,23.2l-0.1,0.2l-22.4,25.4l-0.4-0.2
			c-4.7-2.9-9.7-4.4-14.8-4.4c-17.1,0-31,15.6-31,34.8c0,12.9,6.4,24.6,16.8,30.7l0.3,0.2v19.5h37.2c-0.2-7.3-4.4-13.9-11-17.4
			l-1-0.5l1-0.5c11.4-5.5,18.8-18,18.8-31.9c0-5.8-1.3-11.4-4-16.8l-0.2-0.5l0.4-0.3c5.6-3.4,23.2-14.4,29.8-19.5
			c6.2-4.8,14.8-17.8,21.1-27.4c1.3-2,2.6-3.9,3.6-5.5l13.2-19.5h38.2l0.1,0.4c0,0,1.2,3.8,5.6,8.1c4.1,4,11.8,9.3,25.5,12
			c26.6,5.3,54.4,6.1,54.7,6.2l0.5,0l2.7,27.2l-0.3,0.2c-10.5,6.4-17,19-17,33.1c0,13.5,6.2,25.9,16.1,32.4l0.2,0.1h0.3L568.7,389.9
			L568.7,389.9z"/>
	</g>
</g>
</svg>
